<?xml version="1.0" encoding="UTF-8"?>
<svg xmlns="http://www.w3.org/2000/svg" width="22" height="22" viewBox="0 0 22 22">
  <path fill="#9aa0a6" d="M11 2.5a6.5 6.5 0 0 0-4.98 10.67c.66.78 1.07 1.63 1.24 2.54a1.6 1.6 0 0 0 1.58 1.47h4.32a1.6 1.6 0 0 0 1.58-1.47c.17-.91.58-1.76 1.24-2.54A6.5 6.5 0 0 0 11 2.5Zm0 1.7a4.8 4.8 0 0 1 3.66 7.9c-.83.98-1.37 2.1-1.58 3.35H8.92c-.21-1.25-.75-2.37-1.58-3.35A4.8 4.8 0 0 1 11 4.2Z"/>
  <rect x="9" y="17.4" width="4" height="2.2" rx="1" fill="#9aa0a6"/>
</svg>
